<svg width="400" height="400" viewBox="0 0 400 400" fill="none" xmlns="http://www.w3.org/2000/svg">
  <rect width="400" height="400" fill="#F3F4F6"/>
  <path d="M200 120C177.909 120 160 137.909 160 160V240C160 262.091 177.909 280 200 280C222.091 280 240 262.091 240 240V160C240 137.909 222.091 120 200 120Z" fill="#D1D5DB"/>
  <path d="M150 200C150 177.909 167.909 160 190 160H210C232.091 160 250 177.909 250 200V220C250 242.091 232.091 260 210 260H190C167.909 260 150 242.091 150 220V200Z" fill="#9CA3AF"/>
  <circle cx="185" cy="195" r="10" fill="#6B7280"/>
  <circle cx="215" cy="195" r="10" fill="#6B7280"/>
  <path d="M175 225C175 225 185 235 200 235C215 235 225 225 225 225" stroke="#6B7280" stroke-width="3" stroke-linecap="round"/>
</svg>
